<?xml version="1.0"?><svg xmlns="http://www.w3.org/2000/svg" xmlns:xlink="http://www.w3.org/1999/xlink" width="200" height="260" viewBox="0 0 200 260" xmlns:c2pa="http://c2pa.org/manifest"><metadata><c2pa:manifest>AAAWgmp1bWIAAAAeanVtZGMycGEAEQAQgAAAqgA4m3EDYzJwYQAAABZcanVtYgAAAEdqdW1kYzJtYQARABCAAACqADibcQN1cm46YzJwYTpiNTFmN2ZkMi0xOWUzLTRhZTMtOGI4Yi00YjlmNWQwNjFjMTUAAAADl2p1bWIAAAApanVtZGMyYXMAEQAQgAAAqgA4m3EDYzJwYS5hc3NlcnRpb25zAAAAALxqdW1iAAAARGp1bWRjYm9yABEAEIAAAKoAOJtxE2MycGEuaW5ncmVkaWVudC52MwAAAAAYYzJzaLSV8wMfKrGWrEJlVibOhN0AAABwY2JvcqNpZGM6Zm9ybWF0bWltYWdlL3N2Zyt4bWxqaW5zdGFuY2VJRHgseG1wOmlpZDowNWRhZmQ1Zi0zNDdjLTQ5MzMtOGQ2NC01MzM5Y2ZkNDY1ODBscmVsYXRpb25zaGlwaHBhcmVudE9mAAAB4mp1bWIAAABBanVtZGNib3IAEQAQgAAAqgA4m3ETYzJwYS5hY3Rpb25zLnYyAAAAABhjMnNonqerunOFKoe+Huuix861cAAAAZljYm9yomdhY3Rpb25zgqJmYWN0aW9ua2MycGEub3BlbmVkanBhcmFtZXRlcnOha2luZ3JlZGllbnRzgaJjdXJseC1zZWxmI2p1bWJmPWMycGEuYXNzZXJ0aW9ucy9jMnBhLmluZ3JlZGllbnQudjNkaGFzaFggyOGqv8n31UeWbYfIOba0H7xEThj2M7EYmGTT67xHD2OkZmFjdGlvbngdY29tLmFudGhyb3BpYy5jbGF1ZGUucHJvdmlkZWRqcGFyYW1ldGVyc6F4H2NvbS5hbnRocm9waWMub3JpZ2luLWNvbmZpZGVuY2VndW5rbm93bmtkZXNjcmlwdGlvbnhmQ2xhdWRlIHByb3ZpZGVkIHRoaXMgZmlsZSBhdCB0aGUgcmVxdWVzdCBvZiBhIHVzZXIgYW5kIG1heSBoYXZlIGNyZWF0ZWQgb3IgbW9kaWZpZWQgdGhlIGZpbGUgY29udGVudHMubXNvZnR3YXJlQWdlbnShZG5hbWVmQ2xhdWRlcmFsbEFjdGlvbnNJbmNsdWRlZPUAAADIanVtYgAAAEBqdW1kY2JvcgARABCAAACqADibcRNjMnBhLmhhc2guZGF0YQAAAAAYYzJzaNA7mP5Br9QlqoIMYMQ31KcAAACAY2JvcqVjYWxnZnNoYTI1NmNwYWRNAAAAAAAAAAAAAAAAAGRoYXNoWCDAjvGo2D/lZIizOxxUOt1BXbqLAc/D9QU0iy2k3ent1GRuYW1lbmp1bWJmIG1hbmlmZXN0amV4Y2x1c2lvbnOBomVzdGFydBjWZmxlbmd0aBkeBAAAAj5qdW1iAAAAJ2p1bWRjMmNsABEAEIAAAKoAOJtxA2MycGEuY2xhaW0udjIAAAACD2Nib3KlY2FsZ2ZzaGEyNTZpc2lnbmF0dXJleE1zZWxmI2p1bWJmPS9jMnBhL3VybjpjMnBhOmI1MWY3ZmQyLTE5ZTMtNGFlMy04YjhiLTRiOWY1ZDA2MWMxNS9jMnBhLnNpZ25hdHVyZWppbnN0YW5jZUlEeCx4bXA6aWlkOjRlNWIxM2Q2LTIxZTUtNGFiOC05Mzc1LWE4MjdhYWY2ZTAyNHJjcmVhdGVkX2Fzc2VydGlvbnODomN1cmx4LXNlbGYjanVtYmY9YzJwYS5hc3NlcnRpb25zL2MycGEuaW5ncmVkaWVudC52M2RoYXNoWCDI4aq/yffVR5Zth8g5trQfvEROGPYzsRiYZNPrvEcPY6JjdXJseCpzZWxmI2p1bWJmPWMycGEuYXNzZXJ0aW9ucy9jMnBhLmFjdGlvbnMudjJkaGFzaFggeLyyr1P/mFO/jtc0LP20KpHBctNQkj7TMhX4cixIku2iY3VybHgpc2VsZiNqdW1iZj1jMnBhLmFzc2VydGlvbnMvYzJwYS5oYXNoLmRhdGFkaGFzaFgg6Byci+6teucmkzy4Ht7zvc5mH7M7RYWsabbYhrvsxFx0Y2xhaW1fZ2VuZXJhdG9yX2luZm+jZG5hbWVvQW50aHJvcGljIEZpbGVzZ3ZlcnNpb25lMS4wLjBrc3BlY1ZlcnNpb25lMi40LjAAABA4anVtYgAAAChqdW1kYzJjcwARABCAAACqADibcQNjMnBhLnNpZ25hdHVyZQAAABAIY2JvctKEWQISogEmGCFZAgowggIGMIIBjaADAgECAhRA5aAK7sI50L64g/oGQgU9Z1UTADAKBggqhkjOPQQDAzBJMRcwFQYDVQQKEw5BbnRocm9waWMsIFBCQzEuMCwGA1UEAxMlQW50aHJvcGljIENvbnRlbnQgQ3JlZGVudGlhbHMgUm9vdCBDQTAeFw0yNjA4MDcxODQzNTZaFw0yODA4MDYxOTQzNTZaMEQxFzAVBgNVBAoTDkFudGhyb3BpYywgUEJDMSkwJwYDVQQDEyBBbnRocm9waWMgQ2xhdWRlIENvbnRlbnQgU2lnbmluZzBZMBMGByqGSM49AgEGCCqGSM49AwEHA0IABJh6CmvLUBgFFNU0vUKlOVtE6djd17L5SuwX0LemFisBM3dkd/3cyjxFA3Qo5S46fX0/ihY0VZ7mfb9KF703t5OjWDBWMA4GA1UdDwEB/wQEAwIHgDAVBgNVHSUEDjAMBgorBgEEAYPoXgIBMAwGA1UdEwEB/wQCMAAwHwYDVR0jBBgwFoAUzlHiBIFOZFsj+OPEz5o+nMHXXMIwCgYIKoZIzj0EAwMDZwAwZAIwMXMdFJ4BetLLVY7ORuE9noqbbAZOZn/aArXyTwFAZfKrPzxF2vPoJNf1+UCdg1XGAjBwX1zd9WGqYkqmL5SFqw1QySjr1zJfpJM9+1rdDwSPLMOPOjKuiXjoU/pUUeG9RwmhY3BhZFkNngAAAAAAAAAAAAAAAAAAAAAAAAAAAAAAAAAAAAAAAAAAAAAAAAAAAAAAAAAAAAAAAAAAAAAAAAAAAAAAAAAAAAAAAAAAAAAAAAAAAAAAAAAAAAAAAAAAAAAAAAAAAAAAAAAAAAAAAAAAAAAAAAAAAAAAAAAAAAAAAAAAAAAAAAAAAAAAAAAAAAAAAAAAAAAAAAAAAAAAAAAAAAAAAAAAAAAAAAAAAAAAAAAAAAAAAAAAAAAAAAAAAAAAAAAAAAAAAAAAAAAAAAAAAAAAAAAAAAAAAAAAAAAAAAAAAAAAAAAAAAAAAAAAAAAAAAAAAAAAAAAAAAAAAAAAAAAAAAAAAAAAAAAAAAAAAAAAAAAAAAAAAAAAAAAAAAAAAAAAAAAAAAAAAAAAAAAAAAAAAAAAAAAAAAAAAAAAAAAAAAAAAAAAAAAAAAAAAAAAAAAAAAAAAAAAAAAAAAAAAAAAAAAAAAAAAAAAAAAAAAAAAAAAAAAAAAAAAAAAAAAAAAAAAAAAAAAAAAAAAAAAAAAAAAAAAAAAAAAAAAAAAAAAAAAAAAAAAAAAAAAAAAAAAAAAAAAAAAAAAAAAAAAAAAAAAAAAAAAAAAAAAAAAAAAAAAAAAAAAAAAAAAAAAAAAAAAAAAAAAAAAAAAAAAAAAAAAAAAAAAAAAAAAAAAAAAAAAAAAAAAAAAAAAAAAAAAAAAAAAAAAAAAAAAAAAAAAAAAAAAAAAAAAAAAAAAAAAAAAAAAAAAAAAAAAAAAAAAAAAAAAAAAAAAAAAAAAAAAAAAAAAAAAAAAAAAAAAAAAAAAAAAAAAAAAAAAAAAAAAAAAAAAAAAAAAAAAAAAAAAAAAAAAAAAAAAAAAAAAAAAAAAAAAAAAAAAAAAAAAAAAAAAAAAAAAAAAAAAAAAAAAAAAAAAAAAAAAAAAAAAAAAAAAAAAAAAAAAAAAAAAAAAAAAAAAAAAAAAAAAAAAAAAAAAAAAAAAAAAAAAAAAAAAAAAAAAAAAAAAAAAAAAAAAAAAAAAAAAAAAAAAAAAAAAAAAAAAAAAAAAAAAAAAAAAAAAAAAAAAAAAAAAAAAAAAAAAAAAAAAAAAAAAAAAAAAAAAAAAAAAAAAAAAAAAAAAAAAAAAAAAAAAAAAAAAAAAAAAAAAAAAAAAAAAAAAAAAAAAAAAAAAAAAAAAAAAAAAAAAAAAAAAAAAAAAAAAAAAAAAAAAAAAAAAAAAAAAAAAAAAAAAAAAAAAAAAAAAAAAAAAAAAAAAAAAAAAAAAAAAAAAAAAAAAAAAAAAAAAAAAAAAAAAAAAAAAAAAAAAAAAAAAAAAAAAAAAAAAAAAAAAAAAAAAAAAAAAAAAAAAAAAAAAAAAAAAAAAAAAAAAAAAAAAAAAAAAAAAAAAAAAAAAAAAAAAAAAAAAAAAAAAAAAAAAAAAAAAAAAAAAAAAAAAAAAAAAAAAAAAAAAAAAAAAAAAAAAAAAAAAAAAAAAAAAAAAAAAAAAAAAAAAAAAAAAAAAAAAAAAAAAAAAAAAAAAAAAAAAAAAAAAAAAAAAAAAAAAAAAAAAAAAAAAAAAAAAAAAAAAAAAAAAAAAAAAAAAAAAAAAAAAAAAAAAAAAAAAAAAAAAAAAAAAAAAAAAAAAAAAAAAAAAAAAAAAAAAAAAAAAAAAAAAAAAAAAAAAAAAAAAAAAAAAAAAAAAAAAAAAAAAAAAAAAAAAAAAAAAAAAAAAAAAAAAAAAAAAAAAAAAAAAAAAAAAAAAAAAAAAAAAAAAAAAAAAAAAAAAAAAAAAAAAAAAAAAAAAAAAAAAAAAAAAAAAAAAAAAAAAAAAAAAAAAAAAAAAAAAAAAAAAAAAAAAAAAAAAAAAAAAAAAAAAAAAAAAAAAAAAAAAAAAAAAAAAAAAAAAAAAAAAAAAAAAAAAAAAAAAAAAAAAAAAAAAAAAAAAAAAAAAAAAAAAAAAAAAAAAAAAAAAAAAAAAAAAAAAAAAAAAAAAAAAAAAAAAAAAAAAAAAAAAAAAAAAAAAAAAAAAAAAAAAAAAAAAAAAAAAAAAAAAAAAAAAAAAAAAAAAAAAAAAAAAAAAAAAAAAAAAAAAAAAAAAAAAAAAAAAAAAAAAAAAAAAAAAAAAAAAAAAAAAAAAAAAAAAAAAAAAAAAAAAAAAAAAAAAAAAAAAAAAAAAAAAAAAAAAAAAAAAAAAAAAAAAAAAAAAAAAAAAAAAAAAAAAAAAAAAAAAAAAAAAAAAAAAAAAAAAAAAAAAAAAAAAAAAAAAAAAAAAAAAAAAAAAAAAAAAAAAAAAAAAAAAAAAAAAAAAAAAAAAAAAAAAAAAAAAAAAAAAAAAAAAAAAAAAAAAAAAAAAAAAAAAAAAAAAAAAAAAAAAAAAAAAAAAAAAAAAAAAAAAAAAAAAAAAAAAAAAAAAAAAAAAAAAAAAAAAAAAAAAAAAAAAAAAAAAAAAAAAAAAAAAAAAAAAAAAAAAAAAAAAAAAAAAAAAAAAAAAAAAAAAAAAAAAAAAAAAAAAAAAAAAAAAAAAAAAAAAAAAAAAAAAAAAAAAAAAAAAAAAAAAAAAAAAAAAAAAAAAAAAAAAAAAAAAAAAAAAAAAAAAAAAAAAAAAAAAAAAAAAAAAAAAAAAAAAAAAAAAAAAAAAAAAAAAAAAAAAAAAAAAAAAAAAAAAAAAAAAAAAAAAAAAAAAAAAAAAAAAAAAAAAAAAAAAAAAAAAAAAAAAAAAAAAAAAAAAAAAAAAAAAAAAAAAAAAAAAAAAAAAAAAAAAAAAAAAAAAAAAAAAAAAAAAAAAAAAAAAAAAAAAAAAAAAAAAAAAAAAAAAAAAAAAAAAAAAAAAAAAAAAAAAAAAAAAAAAAAAAAAAAAAAAAAAAAAAAAAAAAAAAAAAAAAAAAAAAAAAAAAAAAAAAAAAAAAAAAAAAAAAAAAAAAAAAAAAAAAAAAAAAAAAAAAAAAAAAAAAAAAAAAAAAAAAAAAAAAAAAAAAAAAAAAAAAAAAAAAAAAAAAAAAAAAAAAAAAAAAAAAAAAAAAAAAAAAAAAAAAAAAAAAAAAAAAAAAAAAAAAAAAAAAAAAAAAAAAAAAAAAAAAAAAAAAAAAAAAAAAAAAAAAAAAAAAAAAAAAAAAAAAAAAAAAAAAAAAAAAAAAAAAAAAAAAAAAAAAAAAAAAAAAAAAAAAAAAAAAAAAAAAAAAAAAAAAAAAAAAAAAAAAAAAAAAAAAAAAAAAAAAAAAAAAAAAAAAAAAAAAAAAAAAAAAAAAAAAAAAAAAAAAAAAAAAAAAAAAAAAAAAAAAAAAAAAAAAAAAAAAAAAAAAAAAAAAAAAAAAAAAAAAAAAAAAAAAAAAAAAAAAAAAAAAAAAAAAAAAAAAAAAAAAAAAAAAAAAAAAAAAAAAAAAAAAAAAAAAAAAAAAAAAAAAAAAAAAAAAAAAAAAAAAAAAAAAAAAAAAAAAAAAAAAAAAAAAAAAAAAAAAAAAAAAAAAAAAAAAAAAAAAAAAAAAAAAAAAAAAAAAAAAAAAAAAAAAAAAAAAAAAAAAAAAAAAAAAAAAAAAAAAAAAAAAAAAAAAAAAAAAAAAAAAAAAAAAAAAAAAAAAAAAAAAAAAAAAAAAAAAAAAAAAAAAAAAAAAAAAAAAAAAAAAAAAAAAAAAAAAAAAAAAAAAAAAAAAAAAAAAAAAAAAAAAAAAAAAAAAAAAAAAAAAAAAAAAAAAAAAAAAAAAAAAAAAAAAAAAAAAAAAAAAAAAAAAAAAAAAAAAAAAAAAAAAAAAAAAAAAAAAAAAAAAAAAAAAAAAAAAAAAAAAAAAAAAAAAAAAAAAAAAAAAAAAAAAAAAAAAAAAAAAAAAAAAAAAAAAAAAAAAAAAAAAAAAAAAAAAAAAAAAAAAAAAAAAAAAAAAAAAAAAAAAAAAAAAAAAAAAAAAAAAAAAAAAAAAAAAAAAAAAAAAAAAAAAAAAAAAAAAAAAAAAAAAAAAAAAAAAAAAAAAAAAAAAAAAAAAAAAAAAAAAAAAAAAAAAAAAAAAAAAAAAAAAAAAAAAAAAAAAAAAAAAAAAAAAAAAAAAAAAAAAAAAAAAAAAAAAAAAAAAAAAAAAAAAAAAAAAAAAAAAAAAAAAAAAAAAAAAAAAAAAAAAAAAAAAAAAAAAAAAAAAAAAAAAAAAAAAAAAAAAAAAAAAAAAAAAAAAAAAAAAAAAAAAAAAAAAAAAAAAAAAAAAAAAAAAAAAAAAAAAAAAAAAAAAAAAAAAAAAAAAAAAAAAAAAAAAAAAAAAAAAAAAAAAAAAAAAAAAAAAAAAAAAAAAAAAAAAAAAAAAAAAAAAAAAAAAAAAAAAAAAAAAAAAAAAAAAAAAAAAAAAAAAAAAAAAAAAAAAAAAAAAAAAAAAAAAAAAAAAAAAAAAAAAAAAAAAAAAAAAAAAAAAAAAAAAAAAAAAAAAAAAAAAAAAAAAAAAAAAAAAAAAAAAAAAAAAAAAAAAAAAAAAAAAAAAAAAAAAAAAAAAAAAAAAAAAAAAAAAAAAAAAAAAAAAAAAAAAAAAAAAAAAAAAAAAAAAAAAAAAAAAAAAAAAAAAAAAAAAAAAAAAAAAAAAAAAAAAAAAAAAAAAAAAAAAAAAAAAAAAAAAAAAAAAAAAAAAAAAAAAAAAAAAAAAAAAAAAAAAAAAAAAAAAAAAAAAAAAAAAAAAAAAAAAAAAAAAAAAAAAAAAAAAAAAAAAAAPZYQMY6NAMgHMoL4RnCGphqBWm9ER3OFMiu7t+RENwF6upM5dK2OjztHA9shVhkSEo/Vs/Ui4WSH09USBRrJPrvlN0=</c2pa:manifest></metadata>
<defs>
<radialGradient id="peG" cx="0.45" cy="0.4" r="0.65"><stop offset="0.00" stop-color="#86C874"></stop><stop offset="0.50" stop-color="#4E9A4A"></stop><stop offset="1.00" stop-color="#3A7A3A"></stop></radialGradient>
<g id="peLeaf"><path d="M0 0 L0 -22" stroke="#7A9A4A" stroke-width="2.2" fill="none" stroke-linecap="round"></path><path d="M18.2 -38 L17.8 -36.8 L16.9 -35.8 L15.8 -34.8 L15.3 -33.9 L15.3 -32.8 L15.7 -31.5 L16 -30.1 L15.8 -28.9 L14.8 -28.1 L13.5 -27.7 L12.1 -27.3 L11.2 -26.8 L10.7 -25.9 L10.3 -24.5 L9.9 -23.2 L9.1 -22.2 L7.9 -22 L6.5 -22.3 L5 -23.1 L3.6 -24.5 L2.5 -25.3 L1.6 -25.9 L0.7 -26.7 L0 -28 L-0.7 -26.7 L-1.6 -25.9 L-2.5 -25.3 L-3.6 -24.5 L-5 -23.1 L-6.5 -22.3 L-7.9 -22 L-9.1 -22.2 L-9.9 -23.2 L-10.3 -24.5 L-10.7 -25.9 L-11.2 -26.8 L-12.1 -27.3 L-13.5 -27.7 L-14.8 -28.1 L-15.8 -28.9 L-16 -30.1 L-15.7 -31.5 L-15.3 -32.8 L-15.3 -33.9 L-15.8 -34.8 L-16.9 -35.8 L-17.8 -36.8 L-18.2 -38 L-17.8 -39.2 L-16.9 -40.2 L-15.8 -41.2 L-15.3 -42.1 L-15.3 -43.2 L-15.7 -44.5 L-16 -45.9 L-15.8 -47.1 L-14.8 -47.9 L-13.5 -48.3 L-12.1 -48.7 L-11.2 -49.2 L-10.7 -50.1 L-10.3 -51.5 L-9.9 -52.8 L-9.1 -53.8 L-7.9 -54 L-6.5 -53.7 L-5.2 -53.3 L-4.1 -53.3 L-3.2 -53.8 L-2.2 -54.9 L-1.2 -55.8 L-0 -56.2 L1.2 -55.8 L2.2 -54.9 L3.2 -53.8 L4.1 -53.3 L5.2 -53.3 L6.5 -53.7 L7.9 -54 L9.1 -53.8 L9.9 -52.8 L10.3 -51.5 L10.7 -50.1 L11.2 -49.2 L12.1 -48.7 L13.5 -48.3 L14.8 -47.9 L15.8 -47.1 L16 -45.9 L15.7 -44.5 L15.3 -43.2 L15.3 -42.1 L15.8 -41.2 L16.9 -40.2 L17.8 -39.2 L18.2 -38 Z" fill="url(#peG)" stroke="#2E6A2E" stroke-width="1.1"></path><path d="M-9 -30 A 10 10 0 1 1 9 -30" stroke="#7A4A2A" stroke-width="3.6" fill="none" opacity=".42"></path><g stroke="#A8D68E" stroke-width=".8" opacity=".55"><path d="M0 -22 L-13 -45.5"></path><path d="M0 -22 L-6.3 -51.6"></path><path d="M0 -22 L0 -53"></path><path d="M0 -22 L6.3 -51.6"></path><path d="M0 -22 L13 -45.5"></path></g></g>
<g id="peUmbel"><g transform="translate(-6.4,-4.1)"><circle cx="0" cy="-2" r="2.3" fill="#E6414E" stroke="#A82A33" stroke-width=".5" transform="rotate(0)"></circle><circle cx="0" cy="-2" r="2.3" fill="#E6414E" stroke="#A82A33" stroke-width=".5" transform="rotate(72)"></circle><circle cx="0" cy="-2" r="2.3" fill="#E6414E" stroke="#A82A33" stroke-width=".5" transform="rotate(144)"></circle><circle cx="0" cy="-2" r="2.3" fill="#E6414E" stroke="#A82A33" stroke-width=".5" transform="rotate(216)"></circle><circle cx="0" cy="-2" r="2.3" fill="#E6414E" stroke="#A82A33" stroke-width=".5" transform="rotate(288)"></circle><circle r="1" fill="#FBD8DC"></circle></g><g transform="translate(4.1,2.9)"><circle cx="0" cy="-2" r="2.3" fill="#E6414E" stroke="#A82A33" stroke-width=".5" transform="rotate(0)"></circle><circle cx="0" cy="-2" r="2.3" fill="#E6414E" stroke="#A82A33" stroke-width=".5" transform="rotate(72)"></circle><circle cx="0" cy="-2" r="2.3" fill="#E6414E" stroke="#A82A33" stroke-width=".5" transform="rotate(144)"></circle><circle cx="0" cy="-2" r="2.3" fill="#E6414E" stroke="#A82A33" stroke-width=".5" transform="rotate(216)"></circle><circle cx="0" cy="-2" r="2.3" fill="#E6414E" stroke="#A82A33" stroke-width=".5" transform="rotate(288)"></circle><circle r="1" fill="#FBD8DC"></circle></g><g transform="translate(5.2,4.8)"><circle cx="0" cy="-2" r="2.3" fill="#E6414E" stroke="#A82A33" stroke-width=".5" transform="rotate(0)"></circle><circle cx="0" cy="-2" r="2.3" fill="#E6414E" stroke="#A82A33" stroke-width=".5" transform="rotate(72)"></circle><circle cx="0" cy="-2" r="2.3" fill="#E6414E" stroke="#A82A33" stroke-width=".5" transform="rotate(144)"></circle><circle cx="0" cy="-2" r="2.3" fill="#E6414E" stroke="#A82A33" stroke-width=".5" transform="rotate(216)"></circle><circle cx="0" cy="-2" r="2.3" fill="#E6414E" stroke="#A82A33" stroke-width=".5" transform="rotate(288)"></circle><circle r="1" fill="#FBD8DC"></circle></g><g transform="translate(-7.4,2)"><circle cx="0" cy="-2" r="2.3" fill="#E6414E" stroke="#A82A33" stroke-width=".5" transform="rotate(0)"></circle><circle cx="0" cy="-2" r="2.3" fill="#E6414E" stroke="#A82A33" stroke-width=".5" transform="rotate(72)"></circle><circle cx="0" cy="-2" r="2.3" fill="#E6414E" stroke="#A82A33" stroke-width=".5" transform="rotate(144)"></circle><circle cx="0" cy="-2" r="2.3" fill="#E6414E" stroke="#A82A33" stroke-width=".5" transform="rotate(216)"></circle><circle cx="0" cy="-2" r="2.3" fill="#E6414E" stroke="#A82A33" stroke-width=".5" transform="rotate(288)"></circle><circle r="1" fill="#FBD8DC"></circle></g><g transform="translate(1.4,3.9)"><circle cx="0" cy="-2" r="2.3" fill="#E6414E" stroke="#A82A33" stroke-width=".5" transform="rotate(0)"></circle><circle cx="0" cy="-2" r="2.3" fill="#E6414E" stroke="#A82A33" stroke-width=".5" transform="rotate(72)"></circle><circle cx="0" cy="-2" r="2.3" fill="#E6414E" stroke="#A82A33" stroke-width=".5" transform="rotate(144)"></circle><circle cx="0" cy="-2" r="2.3" fill="#E6414E" stroke="#A82A33" stroke-width=".5" transform="rotate(216)"></circle><circle cx="0" cy="-2" r="2.3" fill="#E6414E" stroke="#A82A33" stroke-width=".5" transform="rotate(288)"></circle><circle r="1" fill="#FBD8DC"></circle></g><g transform="translate(4.9,-0.4)"><circle cx="0" cy="-2" r="2.3" fill="#E6414E" stroke="#A82A33" stroke-width=".5" transform="rotate(0)"></circle><circle cx="0" cy="-2" r="2.3" fill="#E6414E" stroke="#A82A33" stroke-width=".5" transform="rotate(72)"></circle><circle cx="0" cy="-2" r="2.3" fill="#E6414E" stroke="#A82A33" stroke-width=".5" transform="rotate(144)"></circle><circle cx="0" cy="-2" r="2.3" fill="#E6414E" stroke="#A82A33" stroke-width=".5" transform="rotate(216)"></circle><circle cx="0" cy="-2" r="2.3" fill="#E6414E" stroke="#A82A33" stroke-width=".5" transform="rotate(288)"></circle><circle r="1" fill="#FBD8DC"></circle></g><g transform="translate(3.3,0.3)"><circle cx="0" cy="-2" r="2.3" fill="#E6414E" stroke="#A82A33" stroke-width=".5" transform="rotate(0)"></circle><circle cx="0" cy="-2" r="2.3" fill="#E6414E" stroke="#A82A33" stroke-width=".5" transform="rotate(72)"></circle><circle cx="0" cy="-2" r="2.3" fill="#E6414E" stroke="#A82A33" stroke-width=".5" transform="rotate(144)"></circle><circle cx="0" cy="-2" r="2.3" fill="#E6414E" stroke="#A82A33" stroke-width=".5" transform="rotate(216)"></circle><circle cx="0" cy="-2" r="2.3" fill="#E6414E" stroke="#A82A33" stroke-width=".5" transform="rotate(288)"></circle><circle r="1" fill="#FBD8DC"></circle></g><g transform="translate(6.4,0.5)"><circle cx="0" cy="-2" r="2.3" fill="#E6414E" stroke="#A82A33" stroke-width=".5" transform="rotate(0)"></circle><circle cx="0" cy="-2" r="2.3" fill="#E6414E" stroke="#A82A33" stroke-width=".5" transform="rotate(72)"></circle><circle cx="0" cy="-2" r="2.3" fill="#E6414E" stroke="#A82A33" stroke-width=".5" transform="rotate(144)"></circle><circle cx="0" cy="-2" r="2.3" fill="#E6414E" stroke="#A82A33" stroke-width=".5" transform="rotate(216)"></circle><circle cx="0" cy="-2" r="2.3" fill="#E6414E" stroke="#A82A33" stroke-width=".5" transform="rotate(288)"></circle><circle r="1" fill="#FBD8DC"></circle></g><g transform="translate(5.3,-2)"><circle cx="0" cy="-2" r="2.3" fill="#E6414E" stroke="#A82A33" stroke-width=".5" transform="rotate(0)"></circle><circle cx="0" cy="-2" r="2.3" fill="#E6414E" stroke="#A82A33" stroke-width=".5" transform="rotate(72)"></circle><circle cx="0" cy="-2" r="2.3" fill="#E6414E" stroke="#A82A33" stroke-width=".5" transform="rotate(144)"></circle><circle cx="0" cy="-2" r="2.3" fill="#E6414E" stroke="#A82A33" stroke-width=".5" transform="rotate(216)"></circle><circle cx="0" cy="-2" r="2.3" fill="#E6414E" stroke="#A82A33" stroke-width=".5" transform="rotate(288)"></circle><circle r="1" fill="#FBD8DC"></circle></g><g transform="translate(0.3,3.1)"><circle cx="0" cy="-2" r="2.3" fill="#E6414E" stroke="#A82A33" stroke-width=".5" transform="rotate(0)"></circle><circle cx="0" cy="-2" r="2.3" fill="#E6414E" stroke="#A82A33" stroke-width=".5" transform="rotate(72)"></circle><circle cx="0" cy="-2" r="2.3" fill="#E6414E" stroke="#A82A33" stroke-width=".5" transform="rotate(144)"></circle><circle cx="0" cy="-2" r="2.3" fill="#E6414E" stroke="#A82A33" stroke-width=".5" transform="rotate(216)"></circle><circle cx="0" cy="-2" r="2.3" fill="#E6414E" stroke="#A82A33" stroke-width=".5" transform="rotate(288)"></circle><circle r="1" fill="#FBD8DC"></circle></g><g transform="translate(0.4,2.5)"><circle cx="0" cy="-2" r="2.3" fill="#E6414E" stroke="#A82A33" stroke-width=".5" transform="rotate(0)"></circle><circle cx="0" cy="-2" r="2.3" fill="#E6414E" stroke="#A82A33" stroke-width=".5" transform="rotate(72)"></circle><circle cx="0" cy="-2" r="2.3" fill="#E6414E" stroke="#A82A33" stroke-width=".5" transform="rotate(144)"></circle><circle cx="0" cy="-2" r="2.3" fill="#E6414E" stroke="#A82A33" stroke-width=".5" transform="rotate(216)"></circle><circle cx="0" cy="-2" r="2.3" fill="#E6414E" stroke="#A82A33" stroke-width=".5" transform="rotate(288)"></circle><circle r="1" fill="#FBD8DC"></circle></g></g>
<g id="pe4"><path d="M98 198 Q90 160 88 124" stroke="#7A9A4A" stroke-width="3.2" fill="none" stroke-linecap="round"></path><path d="M102 198 Q112 166 112 132" stroke="#7A9A4A" stroke-width="3.2" fill="none" stroke-linecap="round"></path><path d="M88 128 Q80 102 78 82" stroke="#6E8E48" stroke-width="1.8" fill="none" stroke-linecap="round"></path><path d="M112 134 Q120 106 124 88" stroke="#6E8E48" stroke-width="1.8" fill="none" stroke-linecap="round"></path><path d="M100 170 Q100 112 102 72" stroke="#6E8E48" stroke-width="1.8" fill="none" stroke-linecap="round"></path><use href="#peLeaf" xlink:href="#peLeaf" transform="translate(96.2,188.9) rotate(-70.8) scale(0.660,0.660)"></use><use href="#peLeaf" xlink:href="#peLeaf" transform="translate(93.3,172.4) rotate(54.9) scale(0.625,0.625)"></use><use href="#peLeaf" xlink:href="#peLeaf" transform="translate(90.9,156.1) rotate(-71) scale(0.590,0.590)"></use><use href="#peLeaf" xlink:href="#peLeaf" transform="translate(89.2,139.9) rotate(56.7) scale(0.555,0.555)"></use><use href="#peLeaf" xlink:href="#peLeaf" transform="translate(88,124) rotate(-65.6) scale(0.520,0.520)"></use><use href="#peLeaf" xlink:href="#peLeaf" transform="translate(105.3,186.4) rotate(-44) scale(0.640,0.640)"></use><use href="#peLeaf" xlink:href="#peLeaf" transform="translate(108.2,173.1) rotate(73.4) scale(0.605,0.605)"></use><use href="#peLeaf" xlink:href="#peLeaf" transform="translate(110.3,159.5) rotate(-56.4) scale(0.570,0.570)"></use><use href="#peLeaf" xlink:href="#peLeaf" transform="translate(111.6,145.9) rotate(65.9) scale(0.535,0.535)"></use><use href="#peLeaf" xlink:href="#peLeaf" transform="translate(112,132) rotate(-57.5) scale(0.500,0.500)"></use><use href="#peUmbel" xlink:href="#peUmbel" transform="translate(78,80) rotate(0) scale(1.350,1.350)"></use><use href="#peUmbel" xlink:href="#peUmbel" transform="translate(124,86) rotate(0) scale(1.300,1.300)"></use><use href="#peUmbel" xlink:href="#peUmbel" transform="translate(102,70) rotate(0) scale(1.450,1.450)"></use></g>
</defs>
<use href="#pe4" xlink:href="#pe4"></use>
</svg>