<?xml version="1.0"?><svg xmlns="http://www.w3.org/2000/svg" xmlns:xlink="http://www.w3.org/1999/xlink" width="200" height="260" viewBox="0 0 200 260" xmlns:c2pa="http://c2pa.org/manifest"><metadata><c2pa:manifest>AAAWgmp1bWIAAAAeanVtZGMycGEAEQAQgAAAqgA4m3EDYzJwYQAAABZcanVtYgAAAEdqdW1kYzJtYQARABCAAACqADibcQN1cm46YzJwYTo3NDdlMzgyNS1mZGE2LTRmZTctYTAzMy03NmFlNDYxYTE2Y2QAAAADl2p1bWIAAAApanVtZGMyYXMAEQAQgAAAqgA4m3EDYzJwYS5hc3NlcnRpb25zAAAAALxqdW1iAAAARGp1bWRjYm9yABEAEIAAAKoAOJtxE2MycGEuaW5ncmVkaWVudC52MwAAAAAYYzJzaBVV4GjrMRazXF3ou9MmkXAAAABwY2JvcqNpZGM6Zm9ybWF0bWltYWdlL3N2Zyt4bWxqaW5zdGFuY2VJRHgseG1wOmlpZDphZTYyNTE5MS00NjhmLTRkYTUtYWNhZi0wYzUzMmE0NDkwMDNscmVsYXRpb25zaGlwaHBhcmVudE9mAAAB4mp1bWIAAABBanVtZGNib3IAEQAQgAAAqgA4m3ETYzJwYS5hY3Rpb25zLnYyAAAAABhjMnNoS8PLR7lCU0dmLK3ZWKPfdQAAAZljYm9yomdhY3Rpb25zgqJmYWN0aW9ua2MycGEub3BlbmVkanBhcmFtZXRlcnOha2luZ3JlZGllbnRzgaJjdXJseC1zZWxmI2p1bWJmPWMycGEuYXNzZXJ0aW9ucy9jMnBhLmluZ3JlZGllbnQudjNkaGFzaFggE3qZSkFP+8MlB8cBtsknOncD3vDJObvnuDUK4FXcFgOkZmFjdGlvbngdY29tLmFudGhyb3BpYy5jbGF1ZGUucHJvdmlkZWRqcGFyYW1ldGVyc6F4H2NvbS5hbnRocm9waWMub3JpZ2luLWNvbmZpZGVuY2VndW5rbm93bmtkZXNjcmlwdGlvbnhmQ2xhdWRlIHByb3ZpZGVkIHRoaXMgZmlsZSBhdCB0aGUgcmVxdWVzdCBvZiBhIHVzZXIgYW5kIG1heSBoYXZlIGNyZWF0ZWQgb3IgbW9kaWZpZWQgdGhlIGZpbGUgY29udGVudHMubXNvZnR3YXJlQWdlbnShZG5hbWVmQ2xhdWRlcmFsbEFjdGlvbnNJbmNsdWRlZPUAAADIanVtYgAAAEBqdW1kY2JvcgARABCAAACqADibcRNjMnBhLmhhc2guZGF0YQAAAAAYYzJzaOcq1ZZx1ACxCjWJM+u4CUsAAACAY2JvcqVjYWxnZnNoYTI1NmNwYWRNAAAAAAAAAAAAAAAAAGRoYXNoWCDcL1iq6Cjb6xXy5Ur3DQyuN+1ztktknDXfQjWwcadU/2RuYW1lbmp1bWJmIG1hbmlmZXN0amV4Y2x1c2lvbnOBomVzdGFydBjWZmxlbmd0aBkeBAAAAj5qdW1iAAAAJ2p1bWRjMmNsABEAEIAAAKoAOJtxA2MycGEuY2xhaW0udjIAAAACD2Nib3KlY2FsZ2ZzaGEyNTZpc2lnbmF0dXJleE1zZWxmI2p1bWJmPS9jMnBhL3VybjpjMnBhOjc0N2UzODI1LWZkYTYtNGZlNy1hMDMzLTc2YWU0NjFhMTZjZC9jMnBhLnNpZ25hdHVyZWppbnN0YW5jZUlEeCx4bXA6aWlkOjc0NDVhZTM1LWQwMTktNDVmZi1iMjZmLTI5MGQ5YTEzMzk5MnJjcmVhdGVkX2Fzc2VydGlvbnODomN1cmx4LXNlbGYjanVtYmY9YzJwYS5hc3NlcnRpb25zL2MycGEuaW5ncmVkaWVudC52M2RoYXNoWCATeplKQU/7wyUHxwG2ySc6dwPe8Mk5u+e4NQrgVdwWA6JjdXJseCpzZWxmI2p1bWJmPWMycGEuYXNzZXJ0aW9ucy9jMnBhLmFjdGlvbnMudjJkaGFzaFggt1dfbkNQY2KZPtCgL5rrEOLQqQY9pAejl6c9ZXgydYmiY3VybHgpc2VsZiNqdW1iZj1jMnBhLmFzc2VydGlvbnMvYzJwYS5oYXNoLmRhdGFkaGFzaFggb9F0gCnWJNHprpjeALFpWa2FCkkFWxXeH65rkNHub/50Y2xhaW1fZ2VuZXJhdG9yX2luZm+jZG5hbWVvQW50aHJvcGljIEZpbGVzZ3ZlcnNpb25lMS4wLjBrc3BlY1ZlcnNpb25lMi40LjAAABA4anVtYgAAAChqdW1kYzJjcwARABCAAACqADibcQNjMnBhLnNpZ25hdHVyZQAAABAIY2JvctKEWQISogEmGCFZAgowggIGMIIBjaADAgECAhRA5aAK7sI50L64g/oGQgU9Z1UTADAKBggqhkjOPQQDAzBJMRcwFQYDVQQKEw5BbnRocm9waWMsIFBCQzEuMCwGA1UEAxMlQW50aHJvcGljIENvbnRlbnQgQ3JlZGVudGlhbHMgUm9vdCBDQTAeFw0yNjA4MDcxODQzNTZaFw0yODA4MDYxOTQzNTZaMEQxFzAVBgNVBAoTDkFudGhyb3BpYywgUEJDMSkwJwYDVQQDEyBBbnRocm9waWMgQ2xhdWRlIENvbnRlbnQgU2lnbmluZzBZMBMGByqGSM49AgEGCCqGSM49AwEHA0IABJh6CmvLUBgFFNU0vUKlOVtE6djd17L5SuwX0LemFisBM3dkd/3cyjxFA3Qo5S46fX0/ihY0VZ7mfb9KF703t5OjWDBWMA4GA1UdDwEB/wQEAwIHgDAVBgNVHSUEDjAMBgorBgEEAYPoXgIBMAwGA1UdEwEB/wQCMAAwHwYDVR0jBBgwFoAUzlHiBIFOZFsj+OPEz5o+nMHXXMIwCgYIKoZIzj0EAwMDZwAwZAIwMXMdFJ4BetLLVY7ORuE9noqbbAZOZn/aArXyTwFAZfKrPzxF2vPoJNf1+UCdg1XGAjBwX1zd9WGqYkqmL5SFqw1QySjr1zJfpJM9+1rdDwSPLMOPOjKuiXjoU/pUUeG9RwmhY3BhZFkNngAAAAAAAAAAAAAAAAAAAAAAAAAAAAAAAAAAAAAAAAAAAAAAAAAAAAAAAAAAAAAAAAAAAAAAAAAAAAAAAAAAAAAAAAAAAAAAAAAAAAAAAAAAAAAAAAAAAAAAAAAAAAAAAAAAAAAAAAAAAAAAAAAAAAAAAAAAAAAAAAAAAAAAAAAAAAAAAAAAAAAAAAAAAAAAAAAAAAAAAAAAAAAAAAAAAAAAAAAAAAAAAAAAAAAAAAAAAAAAAAAAAAAAAAAAAAAAAAAAAAAAAAAAAAAAAAAAAAAAAAAAAAAAAAAAAAAAAAAAAAAAAAAAAAAAAAAAAAAAAAAAAAAAAAAAAAAAAAAAAAAAAAAAAAAAAAAAAAAAAAAAAAAAAAAAAAAAAAAAAAAAAAAAAAAAAAAAAAAAAAAAAAAAAAAAAAAAAAAAAAAAAAAAAAAAAAAAAAAAAAAAAAAAAAAAAAAAAAAAAAAAAAAAAAAAAAAAAAAAAAAAAAAAAAAAAAAAAAAAAAAAAAAAAAAAAAAAAAAAAAAAAAAAAAAAAAAAAAAAAAAAAAAAAAAAAAAAAAAAAAAAAAAAAAAAAAAAAAAAAAAAAAAAAAAAAAAAAAAAAAAAAAAAAAAAAAAAAAAAAAAAAAAAAAAAAAAAAAAAAAAAAAAAAAAAAAAAAAAAAAAAAAAAAAAAAAAAAAAAAAAAAAAAAAAAAAAAAAAAAAAAAAAAAAAAAAAAAAAAAAAAAAAAAAAAAAAAAAAAAAAAAAAAAAAAAAAAAAAAAAAAAAAAAAAAAAAAAAAAAAAAAAAAAAAAAAAAAAAAAAAAAAAAAAAAAAAAAAAAAAAAAAAAAAAAAAAAAAAAAAAAAAAAAAAAAAAAAAAAAAAAAAAAAAAAAAAAAAAAAAAAAAAAAAAAAAAAAAAAAAAAAAAAAAAAAAAAAAAAAAAAAAAAAAAAAAAAAAAAAAAAAAAAAAAAAAAAAAAAAAAAAAAAAAAAAAAAAAAAAAAAAAAAAAAAAAAAAAAAAAAAAAAAAAAAAAAAAAAAAAAAAAAAAAAAAAAAAAAAAAAAAAAAAAAAAAAAAAAAAAAAAAAAAAAAAAAAAAAAAAAAAAAAAAAAAAAAAAAAAAAAAAAAAAAAAAAAAAAAAAAAAAAAAAAAAAAAAAAAAAAAAAAAAAAAAAAAAAAAAAAAAAAAAAAAAAAAAAAAAAAAAAAAAAAAAAAAAAAAAAAAAAAAAAAAAAAAAAAAAAAAAAAAAAAAAAAAAAAAAAAAAAAAAAAAAAAAAAAAAAAAAAAAAAAAAAAAAAAAAAAAAAAAAAAAAAAAAAAAAAAAAAAAAAAAAAAAAAAAAAAAAAAAAAAAAAAAAAAAAAAAAAAAAAAAAAAAAAAAAAAAAAAAAAAAAAAAAAAAAAAAAAAAAAAAAAAAAAAAAAAAAAAAAAAAAAAAAAAAAAAAAAAAAAAAAAAAAAAAAAAAAAAAAAAAAAAAAAAAAAAAAAAAAAAAAAAAAAAAAAAAAAAAAAAAAAAAAAAAAAAAAAAAAAAAAAAAAAAAAAAAAAAAAAAAAAAAAAAAAAAAAAAAAAAAAAAAAAAAAAAAAAAAAAAAAAAAAAAAAAAAAAAAAAAAAAAAAAAAAAAAAAAAAAAAAAAAAAAAAAAAAAAAAAAAAAAAAAAAAAAAAAAAAAAAAAAAAAAAAAAAAAAAAAAAAAAAAAAAAAAAAAAAAAAAAAAAAAAAAAAAAAAAAAAAAAAAAAAAAAAAAAAAAAAAAAAAAAAAAAAAAAAAAAAAAAAAAAAAAAAAAAAAAAAAAAAAAAAAAAAAAAAAAAAAAAAAAAAAAAAAAAAAAAAAAAAAAAAAAAAAAAAAAAAAAAAAAAAAAAAAAAAAAAAAAAAAAAAAAAAAAAAAAAAAAAAAAAAAAAAAAAAAAAAAAAAAAAAAAAAAAAAAAAAAAAAAAAAAAAAAAAAAAAAAAAAAAAAAAAAAAAAAAAAAAAAAAAAAAAAAAAAAAAAAAAAAAAAAAAAAAAAAAAAAAAAAAAAAAAAAAAAAAAAAAAAAAAAAAAAAAAAAAAAAAAAAAAAAAAAAAAAAAAAAAAAAAAAAAAAAAAAAAAAAAAAAAAAAAAAAAAAAAAAAAAAAAAAAAAAAAAAAAAAAAAAAAAAAAAAAAAAAAAAAAAAAAAAAAAAAAAAAAAAAAAAAAAAAAAAAAAAAAAAAAAAAAAAAAAAAAAAAAAAAAAAAAAAAAAAAAAAAAAAAAAAAAAAAAAAAAAAAAAAAAAAAAAAAAAAAAAAAAAAAAAAAAAAAAAAAAAAAAAAAAAAAAAAAAAAAAAAAAAAAAAAAAAAAAAAAAAAAAAAAAAAAAAAAAAAAAAAAAAAAAAAAAAAAAAAAAAAAAAAAAAAAAAAAAAAAAAAAAAAAAAAAAAAAAAAAAAAAAAAAAAAAAAAAAAAAAAAAAAAAAAAAAAAAAAAAAAAAAAAAAAAAAAAAAAAAAAAAAAAAAAAAAAAAAAAAAAAAAAAAAAAAAAAAAAAAAAAAAAAAAAAAAAAAAAAAAAAAAAAAAAAAAAAAAAAAAAAAAAAAAAAAAAAAAAAAAAAAAAAAAAAAAAAAAAAAAAAAAAAAAAAAAAAAAAAAAAAAAAAAAAAAAAAAAAAAAAAAAAAAAAAAAAAAAAAAAAAAAAAAAAAAAAAAAAAAAAAAAAAAAAAAAAAAAAAAAAAAAAAAAAAAAAAAAAAAAAAAAAAAAAAAAAAAAAAAAAAAAAAAAAAAAAAAAAAAAAAAAAAAAAAAAAAAAAAAAAAAAAAAAAAAAAAAAAAAAAAAAAAAAAAAAAAAAAAAAAAAAAAAAAAAAAAAAAAAAAAAAAAAAAAAAAAAAAAAAAAAAAAAAAAAAAAAAAAAAAAAAAAAAAAAAAAAAAAAAAAAAAAAAAAAAAAAAAAAAAAAAAAAAAAAAAAAAAAAAAAAAAAAAAAAAAAAAAAAAAAAAAAAAAAAAAAAAAAAAAAAAAAAAAAAAAAAAAAAAAAAAAAAAAAAAAAAAAAAAAAAAAAAAAAAAAAAAAAAAAAAAAAAAAAAAAAAAAAAAAAAAAAAAAAAAAAAAAAAAAAAAAAAAAAAAAAAAAAAAAAAAAAAAAAAAAAAAAAAAAAAAAAAAAAAAAAAAAAAAAAAAAAAAAAAAAAAAAAAAAAAAAAAAAAAAAAAAAAAAAAAAAAAAAAAAAAAAAAAAAAAAAAAAAAAAAAAAAAAAAAAAAAAAAAAAAAAAAAAAAAAAAAAAAAAAAAAAAAAAAAAAAAAAAAAAAAAAAAAAAAAAAAAAAAAAAAAAAAAAAAAAAAAAAAAAAAAAAAAAAAAAAAAAAAAAAAAAAAAAAAAAAAAAAAAAAAAAAAAAAAAAAAAAAAAAAAAAAAAAAAAAAAAAAAAAAAAAAAAAAAAAAAAAAAAAAAAAAAAAAAAAAAAAAAAAAAAAAAAAAAAAAAAAAAAAAAAAAAAAAAAAAAAAAAAAAAAAAAAAAAAAAAAAAAAAAAAAAAAAAAAAAAAAAAAAAAAAAAAAAAAAAAAAAAAAAAAAAAAAAAAAAAAAAAAAAAAAAAAAAAAAAAAAAAAAAAAAAAAAAAAAAAAAAAAAAAAAAAAAAAAAAAAAAAAAAAAAAAAAAAAAAAAAAAAAAAAAAAAAAAAAAAAAAAAAAAAAAAAAAAAAAAAAAAAAAAAAAAAAAAAAAAAAAAAAAAAAAAAAAAAAAAAAAAAAAAAAAAAAAAAAAAAAAAAAAAAAAAAAAAAAAAAAAAAAAAAAAAAAAAAAAAAAAAAAAAAAAAAAAAAAAAAAAAAAAAAAAAAAAAAAAAAAAAAAAAAAAAAAAAAAAAAAAAAAAAAAAAAAAAAAAAAAAAAAAAAAAAAAAAAAAAAAAAAAAAAAAAAAAAAAAAAAAAAAAAAAAAAAAAAAAAAAAAAAAAAAAAAAAAAAAAAAAAAAAAAAAAAAAAAAAAAAAAAAAAAAAAAAAAAAAAAAAAAAAAAAAAAAAAAAAAAAAAAAAAAAAAAAAAAAAAAAAAAAAAAAAAAAAAAAAAAAAAAAAAAAAAAAAAAAAAAAAAAAAAAAAAAAAAAAAAAAAAAAAAAAAAAAAAAAAAAAAAAAAAAAAAAAAAAAAAAAAAAAAAAAAAAAAAAAAAAAAAAAAAAAAAAAAAAAAAAAAAAAAAAAAAAAAAAAAAAAAAAAAAAAAAAAAAAAAAAAAAAAAAAAAAAAAAAAAAAAAAAAAAAAAAAAAAAAAAAAAAAAAAAAAAAAAAAAAAAAAAAAAAAAAAAAAAAAAAAAAAAAAAAAAAAAAAAAAAAAAAAAAAAAAAAAAAAAAAAAAAAAAAAAAAAAAAAAAAAAAAAAAAAAAAAAAAAAAAAAAAAAAAAAAAAAAAAAAAAAAAAAAAAAAAAAAAAAAAAAAAAAAAAAAAAAAAAAAAAAAAAAAAAAAAAAAAAAAAAAAAAAAAAAAAAAAAAAAAAAAAAAAAAAAAAAAAAAAAAAAAAAAAAAAAAAAAAAAAAAAAAAAAAAAAAAAAAAAAAAAAAAAAAAAAAAAAAAAAAAAAAAAAAAAAAAAAAAAAAAAAAAAAAAAAAAAAAAAAAAAAAAAAAAAAAAAAAAAAAAAAAAAAAAAAAAAAAAAAAAAAAAAAAAAAAAAAAAAAAAAAAAAAAAAAAAAAAAAAAAAAAAAAAAAAAAAAAAAAAAAAAAAAAAAAAAAAAAPZYQFACsjCr/RDRyZ7qXK3E1xL9B6BaqSMZ/94bEjd1sx5Rc+iuhIQzuwZBLFapTMOky6RqQoB7FjUZA7QFHWRrn+E=</c2pa:manifest></metadata>
<defs>
<linearGradient id="trunkG" x1="0" y1="0" x2="1" y2="0"><stop offset="0.00" stop-color="#8A6038"></stop><stop offset="0.50" stop-color="#6E4A2C"></stop><stop offset="1.00" stop-color="#513521"></stop></linearGradient>
<linearGradient id="fbG" x1="0.2" y1="0" x2="0.8" y2="1"><stop offset="0.00" stop-color="#5FA85A"></stop><stop offset="0.50" stop-color="#2F7038"></stop><stop offset="1.00" stop-color="#1E4A26"></stop></linearGradient>
<g id="fbLeaf"><path d="M0 0 C -6 -3 -8 -14 -6 -21 C -4 -26 -2 -29 0 -34 C 2 -29 4 -26 6 -21 C 8 -14 6 -3 0 0 Z" fill="url(#fbG)" stroke="#173E20" stroke-width="0.8"></path><path d="M0 -1 L0 -30" stroke="#9ACB84" stroke-width="0.9" fill="none" stroke-linecap="round" opacity="0.6"></path><path d="M-2.4 -5 C -4 -12 -3.4 -20 -1.4 -26" stroke="#B8E2A4" stroke-width="1.3" fill="none" stroke-linecap="round" opacity="0.45"></path></g>
<linearGradient id="fbGY" x1="0.2" y1="0" x2="0.8" y2="1"><stop offset="0.00" stop-color="#9AD27E"></stop><stop offset="0.50" stop-color="#5FA85A"></stop><stop offset="1.00" stop-color="#3E7A45"></stop></linearGradient>
<g id="fbLeafY"><path d="M0 0 C -6 -3 -8 -14 -6 -21 C -4 -26 -2 -29 0 -34 C 2 -29 4 -26 6 -21 C 8 -14 6 -3 0 0 Z" fill="url(#fbGY)" stroke="#2F6238" stroke-width="0.8"></path><path d="M0 -1 L0 -30" stroke="#DDF0C8" stroke-width="0.9" fill="none" stroke-linecap="round" opacity="0.7"></path></g>
<g id="fb4"><path d="M97 198 C 92 176 108 160 98 136 C 92 122 104 112 100 100" stroke="url(#trunkG)" stroke-width="4" fill="none" stroke-linecap="round"></path><path d="M103 198 C 108 176 92 160 102 136 C 108 122 96 112 100 100" stroke="#7A5634" stroke-width="3.6" fill="none" stroke-linecap="round"></path><path d="M100 120 Q80 108 66 96" stroke="#6E4A2C" stroke-width="2.4" fill="none" stroke-linecap="round"></path><path d="M100 112 Q122 102 134 90" stroke="#6E4A2C" stroke-width="2.4" fill="none" stroke-linecap="round"></path><use href="#fbLeaf" xlink:href="#fbLeaf" transform="translate(110.1,54.1) rotate(-5.7) scale(0.812,0.812)"></use><use href="#fbLeafY" xlink:href="#fbLeafY" transform="translate(76.4,56.6) rotate(-8.7) scale(0.823,0.823)"></use><use href="#fbLeaf" xlink:href="#fbLeaf" transform="translate(122.5,57.8) rotate(10.1) scale(0.809,0.809)"></use><use href="#fbLeafY" xlink:href="#fbLeafY" transform="translate(89,62.1) rotate(5.1) scale(0.736,0.736)"></use><use href="#fbLeaf" xlink:href="#fbLeaf" transform="translate(123.7,65.9) rotate(88) scale(0.630,0.630)"></use><use href="#fbLeafY" xlink:href="#fbLeafY" transform="translate(60.5,66.7) rotate(-108) scale(0.718,0.718)"></use><use href="#fbLeaf" xlink:href="#fbLeaf" transform="translate(113.3,68.3) rotate(6.1) scale(0.714,0.714)"></use><use href="#fbLeafY" xlink:href="#fbLeafY" transform="translate(117.6,69.6) rotate(14.3) scale(0.826,0.826)"></use><use href="#fbLeaf" xlink:href="#fbLeaf" transform="translate(65.9,74.8) rotate(-97.7) scale(0.693,0.693)"></use><use href="#fbLeaf" xlink:href="#fbLeaf" transform="translate(93.3,76.2) rotate(-20.2) scale(0.744,0.744)"></use><use href="#fbLeaf" xlink:href="#fbLeaf" transform="translate(64.7,76.4) rotate(-105) scale(0.669,0.669)"></use><use href="#fbLeafY" xlink:href="#fbLeafY" transform="translate(138.3,76.6) rotate(98.6) scale(0.695,0.695)"></use><use href="#fbLeaf" xlink:href="#fbLeaf" transform="translate(51.7,76.6) rotate(-75.6) scale(0.662,0.662)"></use><use href="#fbLeaf" xlink:href="#fbLeaf" transform="translate(96.4,77.2) rotate(4.4) scale(0.710,0.710)"></use><use href="#fbLeafY" xlink:href="#fbLeafY" transform="translate(100.9,79.1) rotate(2.4) scale(0.813,0.813)"></use><use href="#fbLeaf" xlink:href="#fbLeaf" transform="translate(102.2,80.5) rotate(10.6) scale(0.821,0.821)"></use><use href="#fbLeaf" xlink:href="#fbLeaf" transform="translate(140,80.9) rotate(120.7) scale(0.750,0.750)"></use><use href="#fbLeafY" xlink:href="#fbLeafY" transform="translate(96.7,83.1) rotate(-24.3) scale(0.842,0.842)"></use><use href="#fbLeaf" xlink:href="#fbLeaf" transform="translate(146.2,83.2) rotate(121.7) scale(0.775,0.775)"></use><use href="#fbLeafY" xlink:href="#fbLeafY" transform="translate(148.1,84.2) rotate(97.6) scale(0.838,0.838)"></use><use href="#fbLeaf" xlink:href="#fbLeaf" transform="translate(49.1,84.9) rotate(-104.1) scale(0.626,0.626)"></use><use href="#fbLeaf" xlink:href="#fbLeaf" transform="translate(70.6,88.3) rotate(-116.5) scale(0.796,0.796)"></use><use href="#fbLeaf" xlink:href="#fbLeaf" transform="translate(82.2,88.8) rotate(-22) scale(0.692,0.692)"></use><use href="#fbLeaf" xlink:href="#fbLeaf" transform="translate(90.2,88.9) rotate(-11.9) scale(0.687,0.687)"></use><use href="#fbLeafY" xlink:href="#fbLeafY" transform="translate(58.5,89.1) rotate(-117.8) scale(0.697,0.697)"></use><use href="#fbLeaf" xlink:href="#fbLeaf" transform="translate(97.7,89.5) rotate(-22.7) scale(0.779,0.779)"></use><use href="#fbLeaf" xlink:href="#fbLeaf" transform="translate(116.9,90.8) rotate(39.6) scale(0.722,0.722)"></use><use href="#fbLeaf" xlink:href="#fbLeaf" transform="translate(118.4,91.7) rotate(35) scale(0.788,0.788)"></use><use href="#fbLeafY" xlink:href="#fbLeafY" transform="translate(45.5,92.7) rotate(-77.6) scale(0.790,0.790)"></use><use href="#fbLeaf" xlink:href="#fbLeaf" transform="translate(118.9,94.9) rotate(86.9) scale(0.809,0.809)"></use><use href="#fbLeafY" xlink:href="#fbLeafY" transform="translate(88.1,95.3) rotate(-93.5) scale(0.652,0.652)"></use><use href="#fbLeaf" xlink:href="#fbLeaf" transform="translate(74.1,96.3) rotate(-90) scale(0.622,0.622)"></use><use href="#fbLeaf" xlink:href="#fbLeaf" transform="translate(58.9,96.8) rotate(-109.5) scale(0.744,0.744)"></use><use href="#fbLeafY" xlink:href="#fbLeafY" transform="translate(117.7,97) rotate(109.1) scale(0.849,0.849)"></use><use href="#fbLeaf" xlink:href="#fbLeaf" transform="translate(142.7,97.1) rotate(113.9) scale(0.707,0.707)"></use><use href="#fbLeafY" xlink:href="#fbLeafY" transform="translate(105.5,97.5) rotate(6.8) scale(0.775,0.775)"></use><use href="#fbLeaf" xlink:href="#fbLeaf" transform="translate(86.9,100) rotate(-82.5) scale(0.820,0.820)"></use><use href="#fbLeaf" xlink:href="#fbLeaf" transform="translate(90.7,100.3) rotate(-30.1) scale(0.845,0.845)"></use><use href="#fbLeaf" xlink:href="#fbLeaf" transform="translate(146.6,101.3) rotate(98.9) scale(0.852,0.852)"></use><use href="#fbLeafY" xlink:href="#fbLeafY" transform="translate(152.8,101.3) rotate(116.5) scale(0.714,0.714)"></use><use href="#fbLeafY" xlink:href="#fbLeafY" transform="translate(112.2,102.3) rotate(91.5) scale(0.698,0.698)"></use><use href="#fbLeaf" xlink:href="#fbLeaf" transform="translate(122.5,102.5) rotate(101) scale(0.654,0.654)"></use><use href="#fbLeaf" xlink:href="#fbLeaf" transform="translate(85.3,103.5) rotate(-91.6) scale(0.654,0.654)"></use><use href="#fbLeaf" xlink:href="#fbLeaf" transform="translate(124.7,104.6) rotate(122.2) scale(0.746,0.746)"></use><use href="#fbLeaf" xlink:href="#fbLeaf" transform="translate(73.2,105.7) rotate(-106.6) scale(0.751,0.751)"></use><use href="#fbLeafY" xlink:href="#fbLeafY" transform="translate(56.7,106.5) rotate(-87.9) scale(0.823,0.823)"></use><use href="#fbLeaf" xlink:href="#fbLeaf" transform="translate(115.6,107.9) rotate(116) scale(0.793,0.793)"></use><use href="#fbLeaf" xlink:href="#fbLeaf" transform="translate(118,108.7) rotate(117.1) scale(0.674,0.674)"></use><use href="#fbLeafY" xlink:href="#fbLeafY" transform="translate(123.6,108.7) rotate(130.8) scale(0.762,0.762)"></use><use href="#fbLeaf" xlink:href="#fbLeaf" transform="translate(145.8,110.8) rotate(124) scale(0.788,0.788)"></use><use href="#fbLeafY" xlink:href="#fbLeafY" transform="translate(134.2,111.2) rotate(120.4) scale(0.728,0.728)"></use><use href="#fbLeafY" xlink:href="#fbLeafY" transform="translate(66.3,111.4) rotate(-113.9) scale(0.795,0.795)"></use><use href="#fbLeaf" xlink:href="#fbLeaf" transform="translate(75.5,111.4) rotate(-125) scale(0.665,0.665)"></use><use href="#fbLeaf" xlink:href="#fbLeaf" transform="translate(88.2,112.4) rotate(-111.3) scale(0.691,0.691)"></use><use href="#fbLeafY" xlink:href="#fbLeafY" transform="translate(81.7,112.9) rotate(-121.9) scale(0.749,0.749)"></use><use href="#fbLeafY" xlink:href="#fbLeafY" transform="translate(147.6,118.5) rotate(135.3) scale(0.798,0.798)"></use><use href="#fbLeafY" xlink:href="#fbLeafY" transform="translate(55,118.7) rotate(-145.4) scale(0.666,0.666)"></use><use href="#fbLeafY" xlink:href="#fbLeafY" transform="translate(133.6,118.8) rotate(123.8) scale(0.737,0.737)"></use><use href="#fbLeaf" xlink:href="#fbLeaf" transform="translate(113.3,119.1) rotate(156.5) scale(0.788,0.788)"></use><use href="#fbLeaf" xlink:href="#fbLeaf" transform="translate(93,119.9) rotate(-147.3) scale(0.753,0.753)"></use><use href="#fbLeaf" xlink:href="#fbLeaf" transform="translate(83.9,120) rotate(-145.4) scale(0.741,0.741)"></use><use href="#fbLeaf" xlink:href="#fbLeaf" transform="translate(60.5,120.3) rotate(-141.6) scale(0.835,0.835)"></use><use href="#fbLeaf" xlink:href="#fbLeaf" transform="translate(113.9,120.3) rotate(134.1) scale(0.710,0.710)"></use><use href="#fbLeaf" xlink:href="#fbLeaf" transform="translate(83.6,120.6) rotate(-124.6) scale(0.734,0.734)"></use><use href="#fbLeafY" xlink:href="#fbLeafY" transform="translate(84.2,121.7) rotate(-129.3) scale(0.674,0.674)"></use><use href="#fbLeaf" xlink:href="#fbLeaf" transform="translate(107.1,123.8) rotate(147.7) scale(0.753,0.753)"></use><use href="#fbLeaf" xlink:href="#fbLeaf" transform="translate(85,125.8) rotate(-146.8) scale(0.834,0.834)"></use><use href="#fbLeaf" xlink:href="#fbLeaf" transform="translate(98.7,129.6) rotate(-160.8) scale(0.677,0.677)"></use><use href="#fbLeaf" xlink:href="#fbLeaf" transform="translate(121.8,130.9) rotate(151.5) scale(0.644,0.644)"></use><use href="#fbLeaf" xlink:href="#fbLeaf" transform="translate(126.6,131) rotate(128.7) scale(0.667,0.667)"></use><use href="#fbLeaf" xlink:href="#fbLeaf" transform="translate(118,132.3) rotate(143.7) scale(0.709,0.709)"></use><use href="#fbLeaf" xlink:href="#fbLeaf" transform="translate(105.6,136.9) rotate(174.9) scale(0.725,0.725)"></use></g>
</defs>
<use href="#fb4" xlink:href="#fb4"></use>
</svg>